@startuml erd
skinparam linetype ortho

entity "User" as user {
  *<b>id</b> : biginteger <<autogenerated>>
  --
  username : text
  password : text
  email : text
  description : text
}

entity "Post" as post {
  *<b>id</b> : biginteger <<autogenerated>>
  --
  post_time : timestamp
  text_description : text 
  --
  *user_id : biginteger <<FK>>
}

entity "Comment" as comment {
  *<b>id</b> : biginteger <<autogenerated>>
  --
  post_time : timestamp
  text_description : text
  --
  *post_id : biginteger <<FK>>
  *user_id : biginteger <<FK>>
  parent_id : Comment
}


entity "Statistic Table" as table {
  likes : biginteger
  views : biginteger 
  --
  *post_id : biginteger <<FK>>
}


user }o..|| post
user }o..|| comment
post }o..|| comment
table }o.. post

@enduml